<?xml version="1.0" encoding="utf-8"?>
<!-- Generator: Adobe Illustrator 21.0.2, SVG Export Plug-In . SVG Version: 6.00 Build 0)  -->
<!DOCTYPE svg PUBLIC "-//W3C//DTD SVG 1.1//EN" "http://www.w3.org/Graphics/SVG/1.1/DTD/svg11.dtd">
<svg version="1.1" xmlns="http://www.w3.org/2000/svg" xmlns:xlink="http://www.w3.org/1999/xlink" x="0px" y="0px"
	 viewBox="0 0 300 300" style="enable-background:new 0 0 300 300;" xml:space="preserve">
<style type="text/css">
	.st0{enable-background:new    ;}
	.st1{fill-rule:evenodd;clip-rule:evenodd;fill:#57A3CF;}
	.st2{fill-rule:evenodd;clip-rule:evenodd;fill:#FFFFFF;}
</style>
<g id="Ellipse_1_" class="st0">
	<circle class="st1" cx="150" cy="150" r="140"/>
</g>
<g id="C_1_" class="st0">
	<path class="st2" d="M171.4,164c-4.7,7.1-12.8,11.8-21.9,11.8c-14.5,0-26.3-11.8-26.3-26.3s11.8-26.3,26.3-26.3
		c9.4,0,17.7,5,22.3,12.4l12.9-8c-7.4-11.4-20.4-19-35.2-19c-23.1,0-41.9,18.5-41.9,41.4s18.7,41.4,41.9,41.4
		c14.8,0,27.9-7.6,35.3-19.2L171.4,164z"/>
</g>
<g id="U_1_" class="st0">
	<path class="st2" d="M193.1,79.8l-8.6,14c18.5,11.6,30.8,32.2,30.8,55.7c0,36.3-29.4,65.8-65.8,65.8c-36.3,0-65.8-29.4-65.8-65.8
		c0-23.6,12.5-44.4,31.2-56l-8.7-14c-23.4,14.5-39,40.4-39,69.9c0,45.4,36.8,82.2,82.2,82.2c45.4,0,82.2-36.8,82.2-82.2
		C231.7,120.1,216.3,94.3,193.1,79.8z"/>
</g>
</svg>
